<svg xmlns="http://www.w3.org/2000/svg" id="Layer_1" x="0" y="0" version="1.1" viewBox="0 0 1269.92 242.85" xml:space="preserve"><style>.st1,.st2,.st3{fill-rule:evenodd;clip-rule:evenodd;fill:#295135}.st2,.st3{fill:#6aaae4}.st3{fill:#fff}</style><path fill="#ff9e18" fill-rule="evenodd" d="M0 198.91h1198.67v43.95H0z" clip-rule="evenodd"/><path d="M4.87 187.06H184.3l9.73-57.66H103.3l25.13-117.37H41.07z" class="st1"/><path d="M910.41 129.4v6.55h30.9l5.77 51.53h85.09L999.1 0H854.42l-37.69 186.82h76.18L926.58 9.98l7.82 69.09 32.95-21.47c-20.68 13.96-44.79 37.58-56.94 71.8M1032.17 187.48l17.92-146.11h83.52l-18.11 146.11zM1053.7 28.08l2.58-25.92h82.92l-2.7 25.92z" class="st2"/><path d="M506.64 36.91l-75.04.19-26.22 149.97h74.08l15.39-74.98c1.69-8.12 3.55-14.91 8.54-19.66 5.66-2.71 10.22-4.69 19.61-4.69 4.44 0 10.51 1.99 12.98 4.69 3.36 2.76 3.36 11.54.85 17.67l-12.81 76.97h76.72l18.64-95.54c.85-12.45 2.59-21.89 1.69-28.09-1.03-6.73-2.59-10.82-5.66-14.61-6.01-5.83-14.12-10.46-22.96-12.99-4.81-1.32-7.76-2.35-20.74-2.35-17.21 0-35.36 3.73-48.95 12.52-8.18 5.58-16.6 15.56-25.13 28.68-.97 1.37 8.47-35.25 9.01-37.78" class="st1"/><path d="M1263.01 108.71c-4.81-1.15-10.52-2.4-15.16-2.4-16.41 0-22.43 5.47-29.58 10.64-3.97 4.51-9.27 11.42-10.41 21.11l-6.49 49h-77.99l19.6-145.69h71.86l-4.15 35.35c-1.21 9.99 6.08-18.09 16.95-32.16 3.12-1.98 14.67-17.56 42.28-10.1l-6.91 74.25z" class="st2"/><path d="M311.35 185.73l78.82.07 27.19-148.7h-76.55c-.85 6.98-6.08 31.09-6.08 31.09-3.24-12.33-8.54-18.76-15.75-24.78-8.65-5.47-23.5-9.69-39.38-9.69-25.73 0-38.78 7.34-49.78 17.57-13.05 11.24-24.72 30.18-29.65 59.29-4.58 26.15-3.07 46.47 6.19 59.59 7.45 12.87 24.47 18.75 47.14 18.75 16.96 0 34.22-4.03 42.09-9.98 6.98-5.54 16.49-12.92 24.89-25.32.78.01-8.72 30.79-9.13 32.11m-38.97-75.64c1.62-6.19 3.91-14.06 10.1-20.38 6.73-6.86 12.33-7.52 19.72-6.98 6.61.6 11.49 3.12 14.91 7.09 4.09 4.75 5.18 12.15 3.55 18.82-1.86 10.4-5.3 17.44-9.92 22.79-4.14 4.44-11.13 6.31-18.76 6.31-9.5 0-14.37-3.13-17.02-6.31-3.78-4.14-5.29-11.23-2.58-21.34M702.73 107.03c1.68-9.92 6.19-15.82 9.98-19.31 4.26-3.61 9.97-8.06 22.36-7.09 7.45.72 11.48 2.82 15.1 7.58 3.36 4.86 4.56 11.18 3.18 18.82-2.35 11.18-4.26 17.98-8.59 22.36-4.15 4.69-11.43 7.64-22.43 6.55-7.82-.72-13.05-1.56-17.02-6.79-3.67-5.35-4.08-12.02-2.58-22.12m35.53 79.79h78.47L854.42 0l-76.96.18-2.17 8.54c-.9 4.08-4.39 15.75-6.79 25.19-4.03 18.1-10.83 38.36-11.43 33.13-.72-8.9-3.72-16.66-12.32-23.64-8.06-6.31-17.92-9.5-35-9.5-26.03 0-45.88 7.15-59.41 17.38-11.41 11.24-21.64 31.45-27.29 58.8-1.98 27.66-1.98 46.97 5.65 60.07 10.23 12.87 26.87 18.76 51.41 18.76 13.47 0 27.96-2.65 40.05-9.69 4.99-2.83 15.15-7.69 23.69-22.61 0-1.56 3.72-6.5 3.25-3.36 0 .73-8.66 32.55-8.84 33.57" class="st1"/><path d="M25.13 141.9c488.01-56.22 716.5-27.06 871.46 5.11 0-2.35-11.61-7.04-15.94-8.72-209.97-55.55-585.96-37.28-855.52 3.61" class="st3"/><path fill="none" stroke="#000" stroke-miterlimit="2.613" stroke-width=".027" d="M25.13 141.9c488.01-56.22 716.5-27.06 871.46 5.11 0-2.35-11.61-7.04-15.94-8.72-209.97-55.55-585.96-37.28-855.52 3.61z"/><path d="M25.13 141.9c488.01-56.22 716.5-27.06 871.46 5.11 0-2.35-11.61-7.04-15.94-8.72-209.97-55.55-585.96-37.28-855.52 3.61" class="st3"/></svg>